<mxfile host="app.diagrams.net" modified="2022-05-28T20:04:10.041Z" agent="5.0 (Windows NT 10.0; Win64; x64) AppleWebKit/537.36 (KHTML, like Gecko) Chrome/84.0.4147.105 Safari/537.36" etag="oMY8YTD2wbOnQORf9m5J" version="18.1.3" type="github">
  <diagram id="hOID2NO2qhy8Afpl9kij" name="Page-1">
    <mxGraphModel dx="1203" dy="731" grid="1" gridSize="10" guides="1" tooltips="1" connect="1" arrows="1" fold="1" page="1" pageScale="1" pageWidth="827" pageHeight="1169" math="0" shadow="0">
      <root>
        <mxCell id="0" />
        <mxCell id="1" parent="0" />
        <mxCell id="WEG5uXrDfeSpom00rCed-1" value="" style="endArrow=none;html=1;rounded=0;strokeWidth=5;strokeColor=#666666;jumpSize=10;shadow=0;arcSize=30;" edge="1" parent="1">
          <mxGeometry width="50" height="50" relative="1" as="geometry">
            <mxPoint x="50" y="350" as="sourcePoint" />
            <mxPoint x="120" y="350" as="targetPoint" />
          </mxGeometry>
        </mxCell>
        <mxCell id="WEG5uXrDfeSpom00rCed-2" value="" style="endArrow=none;html=1;rounded=0;strokeWidth=5;strokeColor=#666666;jumpSize=10;shadow=0;arcSize=30;" edge="1" parent="1">
          <mxGeometry width="50" height="50" relative="1" as="geometry">
            <mxPoint x="50" y="370" as="sourcePoint" />
            <mxPoint x="120" y="370" as="targetPoint" />
          </mxGeometry>
        </mxCell>
        <mxCell id="WEG5uXrDfeSpom00rCed-8" value="" style="endArrow=none;html=1;rounded=0;strokeWidth=5;strokeColor=#666666;" edge="1" parent="1">
          <mxGeometry width="50" height="50" relative="1" as="geometry">
            <mxPoint x="304" y="351" as="sourcePoint" />
            <mxPoint x="374" y="351" as="targetPoint" />
          </mxGeometry>
        </mxCell>
        <mxCell id="WEG5uXrDfeSpom00rCed-9" value="" style="endArrow=none;html=1;rounded=0;strokeWidth=5;strokeColor=#666666;" edge="1" parent="1">
          <mxGeometry width="50" height="50" relative="1" as="geometry">
            <mxPoint x="290" y="320" as="sourcePoint" />
            <mxPoint x="360" y="320" as="targetPoint" />
          </mxGeometry>
        </mxCell>
        <mxCell id="WEG5uXrDfeSpom00rCed-10" value="" style="endArrow=none;html=1;rounded=0;strokeWidth=5;strokeColor=#666666;" edge="1" parent="1">
          <mxGeometry width="50" height="50" relative="1" as="geometry">
            <mxPoint x="301" y="335" as="sourcePoint" />
            <mxPoint x="371" y="335" as="targetPoint" />
          </mxGeometry>
        </mxCell>
        <mxCell id="WEG5uXrDfeSpom00rCed-11" value="" style="endArrow=none;html=1;rounded=0;strokeWidth=5;strokeColor=#666666;" edge="1" parent="1">
          <mxGeometry width="50" height="50" relative="1" as="geometry">
            <mxPoint x="295" y="368" as="sourcePoint" />
            <mxPoint x="365" y="368" as="targetPoint" />
          </mxGeometry>
        </mxCell>
        <mxCell id="WEG5uXrDfeSpom00rCed-12" value="" style="endArrow=none;html=1;rounded=0;strokeWidth=5;strokeColor=#666666;" edge="1" parent="1">
          <mxGeometry width="50" height="50" relative="1" as="geometry">
            <mxPoint x="288" y="397" as="sourcePoint" />
            <mxPoint x="358" y="397" as="targetPoint" />
          </mxGeometry>
        </mxCell>
        <mxCell id="WEG5uXrDfeSpom00rCed-13" value="" style="endArrow=none;html=1;rounded=0;strokeWidth=5;strokeColor=#666666;" edge="1" parent="1">
          <mxGeometry width="50" height="50" relative="1" as="geometry">
            <mxPoint x="314" y="382" as="sourcePoint" />
            <mxPoint x="384" y="382" as="targetPoint" />
          </mxGeometry>
        </mxCell>
        <mxCell id="WEG5uXrDfeSpom00rCed-18" value="" style="endArrow=none;html=1;rounded=0;strokeWidth=5;strokeColor=#CDA2BE;" edge="1" parent="1">
          <mxGeometry width="50" height="50" relative="1" as="geometry">
            <mxPoint x="284" y="351" as="sourcePoint" />
            <mxPoint x="304" y="351" as="targetPoint" />
          </mxGeometry>
        </mxCell>
        <mxCell id="WEG5uXrDfeSpom00rCed-19" value="" style="endArrow=none;html=1;rounded=0;strokeWidth=5;strokeColor=#CDA2BE;fillColor=#e1d5e7;" edge="1" parent="1">
          <mxGeometry width="50" height="50" relative="1" as="geometry">
            <mxPoint x="270" y="320" as="sourcePoint" />
            <mxPoint x="290" y="320" as="targetPoint" />
          </mxGeometry>
        </mxCell>
        <mxCell id="WEG5uXrDfeSpom00rCed-20" value="" style="endArrow=none;html=1;rounded=0;strokeWidth=5;strokeColor=#d79b00;fillColor=#ffe6cc;" edge="1" parent="1">
          <mxGeometry width="50" height="50" relative="1" as="geometry">
            <mxPoint x="281" y="335" as="sourcePoint" />
            <mxPoint x="301" y="335" as="targetPoint" />
          </mxGeometry>
        </mxCell>
        <mxCell id="WEG5uXrDfeSpom00rCed-21" value="" style="endArrow=none;html=1;rounded=0;strokeWidth=5;strokeColor=#d79b00;fillColor=#ffe6cc;" edge="1" parent="1">
          <mxGeometry width="50" height="50" relative="1" as="geometry">
            <mxPoint x="275" y="368" as="sourcePoint" />
            <mxPoint x="295" y="368" as="targetPoint" />
          </mxGeometry>
        </mxCell>
        <mxCell id="WEG5uXrDfeSpom00rCed-22" value="" style="endArrow=none;html=1;rounded=0;strokeWidth=5;strokeColor=#d79b00;fillColor=#ffe6cc;" edge="1" parent="1">
          <mxGeometry width="50" height="50" relative="1" as="geometry">
            <mxPoint x="268" y="397" as="sourcePoint" />
            <mxPoint x="288" y="397" as="targetPoint" />
          </mxGeometry>
        </mxCell>
        <mxCell id="WEG5uXrDfeSpom00rCed-23" value="" style="endArrow=none;html=1;rounded=0;strokeWidth=5;strokeColor=#82b366;fillColor=#d5e8d4;" edge="1" parent="1">
          <mxGeometry width="50" height="50" relative="1" as="geometry">
            <mxPoint x="294" y="382" as="sourcePoint" />
            <mxPoint x="314" y="382" as="targetPoint" />
          </mxGeometry>
        </mxCell>
        <mxCell id="WEG5uXrDfeSpom00rCed-26" value="" style="endArrow=none;html=1;rounded=0;strokeWidth=4;strokeColor=#666666;" edge="1" parent="1">
          <mxGeometry width="50" height="50" relative="1" as="geometry">
            <mxPoint x="858" y="233" as="sourcePoint" />
            <mxPoint x="928" y="233" as="targetPoint" />
          </mxGeometry>
        </mxCell>
        <mxCell id="WEG5uXrDfeSpom00rCed-27" value="" style="endArrow=none;html=1;rounded=0;strokeWidth=4;strokeColor=#666666;" edge="1" parent="1">
          <mxGeometry width="50" height="50" relative="1" as="geometry">
            <mxPoint x="857" y="253" as="sourcePoint" />
            <mxPoint x="928" y="253" as="targetPoint" />
          </mxGeometry>
        </mxCell>
        <mxCell id="WEG5uXrDfeSpom00rCed-28" value="" style="endArrow=none;html=1;rounded=0;strokeWidth=4;strokeColor=#666666;" edge="1" parent="1">
          <mxGeometry width="50" height="50" relative="1" as="geometry">
            <mxPoint x="858" y="313" as="sourcePoint" />
            <mxPoint x="928" y="313" as="targetPoint" />
          </mxGeometry>
        </mxCell>
        <mxCell id="WEG5uXrDfeSpom00rCed-29" value="" style="endArrow=none;html=1;rounded=0;strokeWidth=4;strokeColor=#666666;" edge="1" parent="1">
          <mxGeometry width="50" height="50" relative="1" as="geometry">
            <mxPoint x="857" y="332" as="sourcePoint" />
            <mxPoint x="928" y="332" as="targetPoint" />
          </mxGeometry>
        </mxCell>
        <mxCell id="WEG5uXrDfeSpom00rCed-30" value="" style="endArrow=none;html=1;rounded=0;strokeWidth=4;strokeColor=#666666;" edge="1" parent="1">
          <mxGeometry width="50" height="50" relative="1" as="geometry">
            <mxPoint x="857" y="353" as="sourcePoint" />
            <mxPoint x="928" y="353" as="targetPoint" />
          </mxGeometry>
        </mxCell>
        <mxCell id="WEG5uXrDfeSpom00rCed-31" value="" style="endArrow=none;html=1;rounded=0;strokeWidth=4;strokeColor=#666666;" edge="1" parent="1">
          <mxGeometry width="50" height="50" relative="1" as="geometry">
            <mxPoint x="858" y="472" as="sourcePoint" />
            <mxPoint x="928" y="472" as="targetPoint" />
          </mxGeometry>
        </mxCell>
        <mxCell id="WEG5uXrDfeSpom00rCed-32" value="" style="endArrow=none;html=1;rounded=0;strokeWidth=4;strokeColor=#CDA2BE;" edge="1" parent="1">
          <mxGeometry width="50" height="50" relative="1" as="geometry">
            <mxPoint x="838" y="233" as="sourcePoint" />
            <mxPoint x="858" y="233" as="targetPoint" />
          </mxGeometry>
        </mxCell>
        <mxCell id="WEG5uXrDfeSpom00rCed-33" value="" style="endArrow=none;html=1;rounded=0;strokeWidth=4;strokeColor=#CDA2BE;fillColor=#e1d5e7;" edge="1" parent="1">
          <mxGeometry width="50" height="50" relative="1" as="geometry">
            <mxPoint x="838" y="253" as="sourcePoint" />
            <mxPoint x="858" y="253" as="targetPoint" />
          </mxGeometry>
        </mxCell>
        <mxCell id="WEG5uXrDfeSpom00rCed-34" value="" style="endArrow=none;html=1;rounded=0;strokeWidth=4;strokeColor=#d79b00;fillColor=#ffe6cc;" edge="1" parent="1">
          <mxGeometry width="50" height="50" relative="1" as="geometry">
            <mxPoint x="838" y="313" as="sourcePoint" />
            <mxPoint x="858" y="313" as="targetPoint" />
          </mxGeometry>
        </mxCell>
        <mxCell id="WEG5uXrDfeSpom00rCed-35" value="" style="endArrow=none;html=1;rounded=0;strokeWidth=4;strokeColor=#d79b00;fillColor=#ffe6cc;" edge="1" parent="1">
          <mxGeometry width="50" height="50" relative="1" as="geometry">
            <mxPoint x="838" y="332" as="sourcePoint" />
            <mxPoint x="858" y="332" as="targetPoint" />
          </mxGeometry>
        </mxCell>
        <mxCell id="WEG5uXrDfeSpom00rCed-36" value="" style="endArrow=none;html=1;rounded=0;strokeWidth=4;strokeColor=#d79b00;fillColor=#ffe6cc;" edge="1" parent="1">
          <mxGeometry width="50" height="50" relative="1" as="geometry">
            <mxPoint x="838" y="353" as="sourcePoint" />
            <mxPoint x="858" y="353" as="targetPoint" />
          </mxGeometry>
        </mxCell>
        <mxCell id="WEG5uXrDfeSpom00rCed-37" value="" style="endArrow=none;html=1;rounded=0;strokeWidth=4;strokeColor=#82b366;fillColor=#d5e8d4;" edge="1" parent="1">
          <mxGeometry width="50" height="50" relative="1" as="geometry">
            <mxPoint x="838" y="472" as="sourcePoint" />
            <mxPoint x="858" y="472" as="targetPoint" />
          </mxGeometry>
        </mxCell>
        <mxCell id="WEG5uXrDfeSpom00rCed-38" value="" style="endArrow=none;html=1;rounded=0;strokeWidth=4;strokeColor=#666666;" edge="1" parent="1">
          <mxGeometry width="50" height="50" relative="1" as="geometry">
            <mxPoint x="858" y="272" as="sourcePoint" />
            <mxPoint x="928" y="272" as="targetPoint" />
          </mxGeometry>
        </mxCell>
        <mxCell id="WEG5uXrDfeSpom00rCed-39" value="" style="endArrow=none;html=1;rounded=0;strokeWidth=4;strokeColor=#666666;" edge="1" parent="1">
          <mxGeometry width="50" height="50" relative="1" as="geometry">
            <mxPoint x="857" y="292" as="sourcePoint" />
            <mxPoint x="928" y="292" as="targetPoint" />
          </mxGeometry>
        </mxCell>
        <mxCell id="WEG5uXrDfeSpom00rCed-40" value="" style="endArrow=none;html=1;rounded=0;strokeWidth=4;strokeColor=#CDA2BE;" edge="1" parent="1">
          <mxGeometry width="50" height="50" relative="1" as="geometry">
            <mxPoint x="838" y="272" as="sourcePoint" />
            <mxPoint x="858" y="272" as="targetPoint" />
          </mxGeometry>
        </mxCell>
        <mxCell id="WEG5uXrDfeSpom00rCed-41" value="" style="endArrow=none;html=1;rounded=0;strokeWidth=4;strokeColor=#CDA2BE;fillColor=#e1d5e7;" edge="1" parent="1">
          <mxGeometry width="50" height="50" relative="1" as="geometry">
            <mxPoint x="838" y="292" as="sourcePoint" />
            <mxPoint x="858" y="292" as="targetPoint" />
          </mxGeometry>
        </mxCell>
        <mxCell id="WEG5uXrDfeSpom00rCed-42" value="" style="endArrow=none;html=1;rounded=0;strokeWidth=4;strokeColor=#666666;" edge="1" parent="1">
          <mxGeometry width="50" height="50" relative="1" as="geometry">
            <mxPoint x="858" y="372" as="sourcePoint" />
            <mxPoint x="928" y="372" as="targetPoint" />
          </mxGeometry>
        </mxCell>
        <mxCell id="WEG5uXrDfeSpom00rCed-43" value="" style="endArrow=none;html=1;rounded=0;strokeWidth=4;strokeColor=#666666;" edge="1" parent="1">
          <mxGeometry width="50" height="50" relative="1" as="geometry">
            <mxPoint x="857" y="394.00000000000006" as="sourcePoint" />
            <mxPoint x="928" y="394.00000000000006" as="targetPoint" />
          </mxGeometry>
        </mxCell>
        <mxCell id="WEG5uXrDfeSpom00rCed-44" value="" style="endArrow=none;html=1;rounded=0;strokeWidth=4;strokeColor=#666666;" edge="1" parent="1">
          <mxGeometry width="50" height="50" relative="1" as="geometry">
            <mxPoint x="857" y="413.00000000000006" as="sourcePoint" />
            <mxPoint x="928" y="413.00000000000006" as="targetPoint" />
          </mxGeometry>
        </mxCell>
        <mxCell id="WEG5uXrDfeSpom00rCed-45" value="" style="endArrow=none;html=1;rounded=0;strokeWidth=4;strokeColor=#d79b00;fillColor=#ffe6cc;" edge="1" parent="1">
          <mxGeometry width="50" height="50" relative="1" as="geometry">
            <mxPoint x="838" y="372" as="sourcePoint" />
            <mxPoint x="858" y="372" as="targetPoint" />
          </mxGeometry>
        </mxCell>
        <mxCell id="WEG5uXrDfeSpom00rCed-46" value="" style="endArrow=none;html=1;rounded=0;strokeWidth=4;strokeColor=#d79b00;fillColor=#ffe6cc;" edge="1" parent="1">
          <mxGeometry width="50" height="50" relative="1" as="geometry">
            <mxPoint x="838" y="394.00000000000006" as="sourcePoint" />
            <mxPoint x="858" y="394.00000000000006" as="targetPoint" />
          </mxGeometry>
        </mxCell>
        <mxCell id="WEG5uXrDfeSpom00rCed-47" value="" style="endArrow=none;html=1;rounded=0;strokeWidth=4;strokeColor=#d79b00;fillColor=#ffe6cc;" edge="1" parent="1">
          <mxGeometry width="50" height="50" relative="1" as="geometry">
            <mxPoint x="838" y="413.00000000000006" as="sourcePoint" />
            <mxPoint x="858" y="413.00000000000006" as="targetPoint" />
          </mxGeometry>
        </mxCell>
        <mxCell id="WEG5uXrDfeSpom00rCed-48" value="" style="endArrow=none;html=1;rounded=0;strokeWidth=4;strokeColor=#666666;" edge="1" parent="1">
          <mxGeometry width="50" height="50" relative="1" as="geometry">
            <mxPoint x="858" y="492.00000000000006" as="sourcePoint" />
            <mxPoint x="928" y="492.00000000000006" as="targetPoint" />
          </mxGeometry>
        </mxCell>
        <mxCell id="WEG5uXrDfeSpom00rCed-49" value="" style="endArrow=none;html=1;rounded=0;strokeWidth=4;strokeColor=#82b366;fillColor=#d5e8d4;" edge="1" parent="1">
          <mxGeometry width="50" height="50" relative="1" as="geometry">
            <mxPoint x="838" y="492.00000000000006" as="sourcePoint" />
            <mxPoint x="858" y="492.00000000000006" as="targetPoint" />
          </mxGeometry>
        </mxCell>
        <mxCell id="WEG5uXrDfeSpom00rCed-50" value="" style="endArrow=none;html=1;rounded=0;strokeWidth=4;strokeColor=#666666;" edge="1" parent="1">
          <mxGeometry width="50" height="50" relative="1" as="geometry">
            <mxPoint x="857" y="433.00000000000006" as="sourcePoint" />
            <mxPoint x="928" y="433.00000000000006" as="targetPoint" />
          </mxGeometry>
        </mxCell>
        <mxCell id="WEG5uXrDfeSpom00rCed-51" value="" style="endArrow=none;html=1;rounded=0;strokeWidth=4;strokeColor=#666666;" edge="1" parent="1">
          <mxGeometry width="50" height="50" relative="1" as="geometry">
            <mxPoint x="857" y="453.00000000000006" as="sourcePoint" />
            <mxPoint x="928" y="453.00000000000006" as="targetPoint" />
          </mxGeometry>
        </mxCell>
        <mxCell id="WEG5uXrDfeSpom00rCed-52" value="" style="endArrow=none;html=1;rounded=0;strokeWidth=4;strokeColor=#d79b00;fillColor=#ffe6cc;" edge="1" parent="1">
          <mxGeometry width="50" height="50" relative="1" as="geometry">
            <mxPoint x="838" y="433.00000000000006" as="sourcePoint" />
            <mxPoint x="858" y="433.00000000000006" as="targetPoint" />
          </mxGeometry>
        </mxCell>
        <mxCell id="WEG5uXrDfeSpom00rCed-53" value="" style="endArrow=none;html=1;rounded=0;strokeWidth=4;strokeColor=#d79b00;fillColor=#ffe6cc;" edge="1" parent="1">
          <mxGeometry width="50" height="50" relative="1" as="geometry">
            <mxPoint x="838" y="453.00000000000006" as="sourcePoint" />
            <mxPoint x="858" y="453.00000000000006" as="targetPoint" />
          </mxGeometry>
        </mxCell>
        <mxCell id="WEG5uXrDfeSpom00rCed-54" value="" style="endArrow=classicThin;html=1;rounded=0;strokeColor=#333333;strokeWidth=2;endFill=1;" edge="1" parent="1">
          <mxGeometry width="50" height="50" relative="1" as="geometry">
            <mxPoint x="150" y="360" as="sourcePoint" />
            <mxPoint x="250" y="360" as="targetPoint" />
          </mxGeometry>
        </mxCell>
        <mxCell id="WEG5uXrDfeSpom00rCed-56" value="" style="endArrow=classicThin;html=1;rounded=0;strokeColor=#333333;strokeWidth=2;endFill=1;" edge="1" parent="1">
          <mxGeometry width="50" height="50" relative="1" as="geometry">
            <mxPoint x="690" y="360" as="sourcePoint" />
            <mxPoint x="820" y="360" as="targetPoint" />
          </mxGeometry>
        </mxCell>
        <mxCell id="WEG5uXrDfeSpom00rCed-57" value="" style="endArrow=none;html=1;rounded=0;strokeWidth=5;strokeColor=#666666;" edge="1" parent="1">
          <mxGeometry width="50" height="50" relative="1" as="geometry">
            <mxPoint x="568" y="264" as="sourcePoint" />
            <mxPoint x="638" y="264" as="targetPoint" />
          </mxGeometry>
        </mxCell>
        <mxCell id="WEG5uXrDfeSpom00rCed-58" value="" style="endArrow=none;html=1;rounded=0;strokeWidth=5;strokeColor=#CDA2BE;fillColor=#e1d5e7;" edge="1" parent="1">
          <mxGeometry width="50" height="50" relative="1" as="geometry">
            <mxPoint x="548" y="264" as="sourcePoint" />
            <mxPoint x="568" y="264" as="targetPoint" />
          </mxGeometry>
        </mxCell>
        <mxCell id="WEG5uXrDfeSpom00rCed-59" value="" style="endArrow=none;html=1;rounded=0;strokeWidth=5;strokeColor=#666666;" edge="1" parent="1">
          <mxGeometry width="50" height="50" relative="1" as="geometry">
            <mxPoint x="578" y="279" as="sourcePoint" />
            <mxPoint x="648" y="279" as="targetPoint" />
          </mxGeometry>
        </mxCell>
        <mxCell id="WEG5uXrDfeSpom00rCed-60" value="" style="endArrow=none;html=1;rounded=0;strokeWidth=5;strokeColor=#CDA2BE;fillColor=#e1d5e7;" edge="1" parent="1">
          <mxGeometry width="50" height="50" relative="1" as="geometry">
            <mxPoint x="558" y="279" as="sourcePoint" />
            <mxPoint x="578" y="279" as="targetPoint" />
          </mxGeometry>
        </mxCell>
        <mxCell id="WEG5uXrDfeSpom00rCed-61" value="" style="endArrow=none;html=1;rounded=0;strokeWidth=5;strokeColor=#666666;" edge="1" parent="1">
          <mxGeometry width="50" height="50" relative="1" as="geometry">
            <mxPoint x="582" y="347" as="sourcePoint" />
            <mxPoint x="652" y="347" as="targetPoint" />
          </mxGeometry>
        </mxCell>
        <mxCell id="WEG5uXrDfeSpom00rCed-62" value="" style="endArrow=none;html=1;rounded=0;strokeWidth=5;strokeColor=#CDA2BE;fillColor=#e1d5e7;" edge="1" parent="1">
          <mxGeometry width="50" height="50" relative="1" as="geometry">
            <mxPoint x="562" y="347" as="sourcePoint" />
            <mxPoint x="582" y="347" as="targetPoint" />
          </mxGeometry>
        </mxCell>
        <mxCell id="WEG5uXrDfeSpom00rCed-63" value="" style="endArrow=none;html=1;rounded=0;strokeWidth=5;strokeColor=#666666;" edge="1" parent="1">
          <mxGeometry width="50" height="50" relative="1" as="geometry">
            <mxPoint x="590" y="360" as="sourcePoint" />
            <mxPoint x="660" y="360" as="targetPoint" />
          </mxGeometry>
        </mxCell>
        <mxCell id="WEG5uXrDfeSpom00rCed-64" value="" style="endArrow=none;html=1;rounded=0;strokeWidth=5;strokeColor=#CDA2BE;fillColor=#e1d5e7;" edge="1" parent="1">
          <mxGeometry width="50" height="50" relative="1" as="geometry">
            <mxPoint x="570" y="360" as="sourcePoint" />
            <mxPoint x="590" y="360" as="targetPoint" />
          </mxGeometry>
        </mxCell>
        <mxCell id="WEG5uXrDfeSpom00rCed-65" value="" style="endArrow=none;html=1;rounded=0;strokeWidth=5;strokeColor=#666666;" edge="1" parent="1">
          <mxGeometry width="50" height="50" relative="1" as="geometry">
            <mxPoint x="572" y="292" as="sourcePoint" />
            <mxPoint x="642" y="292" as="targetPoint" />
          </mxGeometry>
        </mxCell>
        <mxCell id="WEG5uXrDfeSpom00rCed-66" value="" style="endArrow=none;html=1;rounded=0;strokeWidth=5;strokeColor=#d79b00;fillColor=#ffe6cc;" edge="1" parent="1">
          <mxGeometry width="50" height="50" relative="1" as="geometry">
            <mxPoint x="552" y="292" as="sourcePoint" />
            <mxPoint x="572" y="292" as="targetPoint" />
          </mxGeometry>
        </mxCell>
        <mxCell id="WEG5uXrDfeSpom00rCed-67" value="" style="endArrow=none;html=1;rounded=0;strokeWidth=5;strokeColor=#666666;" edge="1" parent="1">
          <mxGeometry width="50" height="50" relative="1" as="geometry">
            <mxPoint x="581" y="305" as="sourcePoint" />
            <mxPoint x="651" y="305" as="targetPoint" />
          </mxGeometry>
        </mxCell>
        <mxCell id="WEG5uXrDfeSpom00rCed-68" value="" style="endArrow=none;html=1;rounded=0;strokeWidth=5;strokeColor=#d79b00;fillColor=#ffe6cc;" edge="1" parent="1">
          <mxGeometry width="50" height="50" relative="1" as="geometry">
            <mxPoint x="561" y="305" as="sourcePoint" />
            <mxPoint x="581" y="305" as="targetPoint" />
          </mxGeometry>
        </mxCell>
        <mxCell id="WEG5uXrDfeSpom00rCed-69" value="" style="endArrow=none;html=1;rounded=0;strokeWidth=5;strokeColor=#666666;" edge="1" parent="1">
          <mxGeometry width="50" height="50" relative="1" as="geometry">
            <mxPoint x="588" y="319" as="sourcePoint" />
            <mxPoint x="658" y="319" as="targetPoint" />
          </mxGeometry>
        </mxCell>
        <mxCell id="WEG5uXrDfeSpom00rCed-70" value="" style="endArrow=none;html=1;rounded=0;strokeWidth=5;strokeColor=#d79b00;fillColor=#ffe6cc;" edge="1" parent="1">
          <mxGeometry width="50" height="50" relative="1" as="geometry">
            <mxPoint x="568" y="319" as="sourcePoint" />
            <mxPoint x="588" y="319" as="targetPoint" />
          </mxGeometry>
        </mxCell>
        <mxCell id="WEG5uXrDfeSpom00rCed-71" value="" style="endArrow=none;html=1;rounded=0;strokeWidth=5;strokeColor=#666666;" edge="1" parent="1">
          <mxGeometry width="50" height="50" relative="1" as="geometry">
            <mxPoint x="590" y="332" as="sourcePoint" />
            <mxPoint x="660" y="332" as="targetPoint" />
          </mxGeometry>
        </mxCell>
        <mxCell id="WEG5uXrDfeSpom00rCed-72" value="" style="endArrow=none;html=1;rounded=0;strokeWidth=5;strokeColor=#d79b00;fillColor=#ffe6cc;" edge="1" parent="1">
          <mxGeometry width="50" height="50" relative="1" as="geometry">
            <mxPoint x="570" y="332" as="sourcePoint" />
            <mxPoint x="590" y="332" as="targetPoint" />
          </mxGeometry>
        </mxCell>
        <mxCell id="WEG5uXrDfeSpom00rCed-73" value="" style="endArrow=none;html=1;rounded=0;strokeWidth=5;strokeColor=#666666;" edge="1" parent="1">
          <mxGeometry width="50" height="50" relative="1" as="geometry">
            <mxPoint x="578" y="375" as="sourcePoint" />
            <mxPoint x="648" y="375" as="targetPoint" />
          </mxGeometry>
        </mxCell>
        <mxCell id="WEG5uXrDfeSpom00rCed-74" value="" style="endArrow=none;html=1;rounded=0;strokeWidth=5;strokeColor=#d79b00;fillColor=#ffe6cc;" edge="1" parent="1">
          <mxGeometry width="50" height="50" relative="1" as="geometry">
            <mxPoint x="558" y="375" as="sourcePoint" />
            <mxPoint x="578" y="375" as="targetPoint" />
          </mxGeometry>
        </mxCell>
        <mxCell id="WEG5uXrDfeSpom00rCed-75" value="" style="endArrow=none;html=1;rounded=0;strokeWidth=5;strokeColor=#666666;" edge="1" parent="1">
          <mxGeometry width="50" height="50" relative="1" as="geometry">
            <mxPoint x="580" y="389" as="sourcePoint" />
            <mxPoint x="650" y="389" as="targetPoint" />
          </mxGeometry>
        </mxCell>
        <mxCell id="WEG5uXrDfeSpom00rCed-76" value="" style="endArrow=none;html=1;rounded=0;strokeWidth=5;strokeColor=#d79b00;fillColor=#ffe6cc;" edge="1" parent="1">
          <mxGeometry width="50" height="50" relative="1" as="geometry">
            <mxPoint x="560" y="389" as="sourcePoint" />
            <mxPoint x="580" y="389" as="targetPoint" />
          </mxGeometry>
        </mxCell>
        <mxCell id="WEG5uXrDfeSpom00rCed-77" value="" style="endArrow=none;html=1;rounded=0;strokeWidth=5;strokeColor=#666666;" edge="1" parent="1">
          <mxGeometry width="50" height="50" relative="1" as="geometry">
            <mxPoint x="598" y="405" as="sourcePoint" />
            <mxPoint x="668" y="405" as="targetPoint" />
          </mxGeometry>
        </mxCell>
        <mxCell id="WEG5uXrDfeSpom00rCed-78" value="" style="endArrow=none;html=1;rounded=0;strokeWidth=5;strokeColor=#82b366;fillColor=#d5e8d4;" edge="1" parent="1">
          <mxGeometry width="50" height="50" relative="1" as="geometry">
            <mxPoint x="578" y="405" as="sourcePoint" />
            <mxPoint x="598" y="405" as="targetPoint" />
          </mxGeometry>
        </mxCell>
        <mxCell id="WEG5uXrDfeSpom00rCed-79" value="" style="endArrow=none;html=1;rounded=0;strokeWidth=5;strokeColor=#666666;" edge="1" parent="1">
          <mxGeometry width="50" height="50" relative="1" as="geometry">
            <mxPoint x="577" y="421" as="sourcePoint" />
            <mxPoint x="647" y="421" as="targetPoint" />
          </mxGeometry>
        </mxCell>
        <mxCell id="WEG5uXrDfeSpom00rCed-80" value="" style="endArrow=none;html=1;rounded=0;strokeWidth=5;strokeColor=#82b366;fillColor=#d5e8d4;" edge="1" parent="1">
          <mxGeometry width="50" height="50" relative="1" as="geometry">
            <mxPoint x="557" y="421" as="sourcePoint" />
            <mxPoint x="577" y="421" as="targetPoint" />
          </mxGeometry>
        </mxCell>
        <mxCell id="WEG5uXrDfeSpom00rCed-81" value="" style="endArrow=none;html=1;rounded=0;strokeWidth=5;strokeColor=#666666;" edge="1" parent="1">
          <mxGeometry width="50" height="50" relative="1" as="geometry">
            <mxPoint x="590" y="437" as="sourcePoint" />
            <mxPoint x="660" y="437" as="targetPoint" />
          </mxGeometry>
        </mxCell>
        <mxCell id="WEG5uXrDfeSpom00rCed-82" value="" style="endArrow=none;html=1;rounded=0;strokeWidth=5;strokeColor=#d79b00;fillColor=#ffe6cc;" edge="1" parent="1">
          <mxGeometry width="50" height="50" relative="1" as="geometry">
            <mxPoint x="570" y="437" as="sourcePoint" />
            <mxPoint x="590" y="437" as="targetPoint" />
          </mxGeometry>
        </mxCell>
        <mxCell id="WEG5uXrDfeSpom00rCed-83" value="" style="endArrow=none;html=1;rounded=0;strokeWidth=5;strokeColor=#666666;" edge="1" parent="1">
          <mxGeometry width="50" height="50" relative="1" as="geometry">
            <mxPoint x="600" y="452" as="sourcePoint" />
            <mxPoint x="670" y="452" as="targetPoint" />
          </mxGeometry>
        </mxCell>
        <mxCell id="WEG5uXrDfeSpom00rCed-84" value="" style="endArrow=none;html=1;rounded=0;strokeWidth=5;strokeColor=#d79b00;fillColor=#ffe6cc;" edge="1" parent="1">
          <mxGeometry width="50" height="50" relative="1" as="geometry">
            <mxPoint x="580" y="452" as="sourcePoint" />
            <mxPoint x="600" y="452" as="targetPoint" />
          </mxGeometry>
        </mxCell>
        <mxCell id="WEG5uXrDfeSpom00rCed-91" value="" style="shape=curlyBracket;whiteSpace=wrap;html=1;rounded=1;flipH=1;fillColor=none;strokeWidth=2;" vertex="1" parent="1">
          <mxGeometry x="941" y="233" width="20" height="260" as="geometry" />
        </mxCell>
        <mxCell id="WEG5uXrDfeSpom00rCed-95" value="&lt;font style=&quot;font-size: 18px;&quot;&gt;&lt;b&gt;3UMIs&lt;/b&gt;&lt;/font&gt;" style="text;html=1;align=center;verticalAlign=middle;resizable=0;points=[];autosize=1;strokeColor=none;fillColor=none;" vertex="1" parent="1">
          <mxGeometry x="978" y="350" width="70" height="20" as="geometry" />
        </mxCell>
        <mxCell id="WEG5uXrDfeSpom00rCed-97" value="&lt;font style=&quot;font-size: 18px;&quot;&gt;&lt;b&gt;DNA Bacoding&lt;/b&gt;&lt;/font&gt;" style="text;html=1;align=center;verticalAlign=middle;resizable=0;points=[];autosize=1;strokeColor=none;fillColor=none;" vertex="1" parent="1">
          <mxGeometry x="130" y="330" width="140" height="20" as="geometry" />
        </mxCell>
        <mxCell id="WEG5uXrDfeSpom00rCed-100" value="&lt;font style=&quot;font-size: 18px;&quot;&gt;&lt;b&gt;Sequencing&lt;/b&gt;&lt;/font&gt;" style="text;html=1;align=center;verticalAlign=middle;resizable=0;points=[];autosize=1;strokeColor=none;fillColor=none;" vertex="1" parent="1">
          <mxGeometry x="690" y="330" width="120" height="20" as="geometry" />
        </mxCell>
        <mxCell id="WEG5uXrDfeSpom00rCed-101" value="" style="endArrow=classicThin;html=1;rounded=0;strokeColor=#333333;strokeWidth=2;endFill=1;" edge="1" parent="1">
          <mxGeometry width="50" height="50" relative="1" as="geometry">
            <mxPoint x="401" y="360" as="sourcePoint" />
            <mxPoint x="531" y="360" as="targetPoint" />
          </mxGeometry>
        </mxCell>
        <mxCell id="WEG5uXrDfeSpom00rCed-102" value="&lt;font style=&quot;font-size: 18px;&quot;&gt;&lt;b&gt;DNA amplification&lt;/b&gt;&lt;/font&gt;" style="text;html=1;align=center;verticalAlign=middle;resizable=0;points=[];autosize=1;strokeColor=none;fillColor=none;" vertex="1" parent="1">
          <mxGeometry x="381" y="330" width="170" height="20" as="geometry" />
        </mxCell>
      </root>
    </mxGraphModel>
  </diagram>
</mxfile>
